<svg width="386" height="71" viewBox="0 0 386 71" fill="none" xmlns="http://www.w3.org/2000/svg">
<g filter="url(#filter0_d_2001_141)">
<path d="M10.392 23.9L24.072 10.22V60H10.392V23.9ZM37.296 10.22C42.3627 10.22 46.3907 11.5373 49.38 14.172C52.3693 16.756 53.864 20.6573 53.864 25.876C53.864 30.3347 52.3693 34.0587 49.38 37.048C46.4413 39.9867 42.54 41.456 37.676 41.456L27.568 41.38V29.22L37.372 29.144C38.3347 29.144 39.12 28.84 39.728 28.232C40.336 27.624 40.64 26.864 40.64 25.952C40.64 25.1413 40.3613 24.4573 39.804 23.9C39.2467 23.3427 38.4107 23.064 37.296 23.064L24.072 23.14V10.22H37.296ZM37.296 29.144C42.3627 29.144 46.3907 30.4107 49.38 32.944C52.3693 35.4773 53.864 39.3027 53.864 44.42C53.864 48.8787 52.3693 52.6027 49.38 55.592C46.4413 58.5307 42.54 60 37.676 60H27.568V47.536L37.372 47.46C38.3347 47.46 39.12 47.156 39.728 46.548C40.3867 45.8893 40.716 45.104 40.716 44.192C40.716 43.432 40.4627 42.7733 39.956 42.216C39.4493 41.6587 38.6133 41.38 37.448 41.38H27.568V29.22L37.296 29.144ZM57.1641 31.12L68.1081 20.176V30.512V60H57.1641V31.12ZM68.1081 50.044H82.3961V60H68.1081V50.044ZM126.333 39.936C126.333 46.2693 124.281 51.2853 120.177 54.984C116.124 58.632 111.336 60.456 105.813 60.456C100.189 60.456 95.3503 58.6573 91.297 55.06C87.2943 51.4627 85.293 46.4213 85.293 39.936C85.293 33.5013 87.3196 28.4853 91.373 24.888C95.477 21.24 100.29 19.416 105.813 19.416C111.488 19.416 116.326 21.2147 120.329 24.812C124.332 28.4093 126.333 33.4507 126.333 39.936ZM95.629 39.936C95.629 43.0267 96.617 45.484 98.593 47.308C100.62 49.0813 102.976 49.968 105.661 49.968C108.448 49.968 110.804 49.1067 112.729 47.384C114.705 45.6107 115.693 43.128 115.693 39.936C115.693 36.8453 114.68 34.4133 112.653 32.64C110.677 30.816 108.346 29.904 105.661 29.904C102.874 29.904 100.493 30.7653 98.517 32.488C96.5916 34.2107 95.629 36.6933 95.629 39.936ZM151.607 50.044V60H146.591C141.271 60 136.787 58.1 133.139 54.3C129.541 50.4493 127.743 45.864 127.743 40.544C127.743 34.92 129.82 30.132 133.975 26.18C138.18 22.228 143.247 20.252 149.175 20.252L164.375 20.176L154.039 30.512H148.719C145.881 30.512 143.424 31.5 141.347 33.476C139.269 35.4013 138.231 37.7573 138.231 40.544C138.231 43.0773 139.092 45.3067 140.815 47.232C142.588 49.1067 144.716 50.044 147.199 50.044H151.607ZM157.879 31.12L168.823 20.176V60H157.879V31.12ZM167.303 37.504L184.631 20.176H198.615L180.755 38.112L188.887 46.168V60L174.067 45.332L167.303 52.096V37.504ZM223.738 30.436L234.682 20.176V30.512V60H223.738V30.436ZM213.706 30.512L224.042 20.176H248.514L238.178 30.512H213.706ZM241.672 31.12L252.616 20.176V30.512V60H241.672V31.12ZM249.576 50.044H266.904V60H252.616L249.576 50.044ZM248.968 35.376H266.904V45.18H252.616L248.968 35.376ZM249.88 30.512L252.616 20.176H277.088L266.752 30.512H249.88ZM269.866 47.08L296.694 20.176H306.118V60H295.174V54.908H277.922L287.726 45.18H295.174V34.616L269.866 60V47.08ZM324.107 35.376C327.958 35.376 331.074 36.516 333.455 38.796C335.887 41.076 337.103 43.964 337.103 47.46C337.103 50.804 335.912 53.7427 333.531 56.276C331.15 58.7587 328.262 60 324.867 60H315.367H309.211V50.044L323.803 50.12C324.462 50.12 325.019 49.8667 325.475 49.36C325.931 48.8027 326.159 48.1693 326.159 47.46C326.159 46.0413 325.196 45.332 323.271 45.332C319.37 45.332 316.127 44.04 313.543 41.456C311.01 38.872 309.743 35.756 309.743 32.108C309.743 28.916 311.035 26.1293 313.619 23.748C316.203 21.3667 319.167 20.176 322.511 20.176H347.135L336.723 30.588L322.131 30.512C321.523 30.512 320.966 30.6893 320.459 31.044C320.003 31.348 319.775 31.8293 319.775 32.488C319.775 33.6027 320.155 34.3627 320.915 34.768C321.878 35.1733 322.942 35.376 324.107 35.376ZM339.789 31.12L350.733 20.176V30.512V60H339.789V31.12ZM347.693 50.044H365.021V60H350.733L347.693 50.044ZM347.085 35.376H365.021V45.18H350.733L347.085 35.376ZM347.997 30.512L350.733 20.176H375.205L364.869 30.512H347.997Z" fill="url(#paint0_linear_2001_141)"/>
</g>
<defs>
<filter id="filter0_d_2001_141" x="0.390625" y="0.220703" width="384.816" height="70.2344" filterUnits="userSpaceOnUse" color-interpolation-filters="sRGB">
<feFlood flood-opacity="0" result="BackgroundImageFix"/>
<feColorMatrix in="SourceAlpha" type="matrix" values="0 0 0 0 0 0 0 0 0 0 0 0 0 0 0 0 0 0 127 0" result="hardAlpha"/>
<feOffset/>
<feGaussianBlur stdDeviation="5"/>
<feComposite in2="hardAlpha" operator="out"/>
<feColorMatrix type="matrix" values="0 0 0 0 1 0 0 0 0 0 0 0 0 0 0.556863 0 0 0 0.69 0"/>
<feBlend mode="normal" in2="BackgroundImageFix" result="effect1_dropShadow_2001_141"/>
<feBlend mode="normal" in="SourceGraphic" in2="effect1_dropShadow_2001_141" result="shape"/>
</filter>
<linearGradient id="paint0_linear_2001_141" x1="11" y1="38.5" x2="369" y2="38.5" gradientUnits="userSpaceOnUse">
<stop stop-color="#9A3CFF"/>
<stop offset="1" stop-color="#FF008E"/>
</linearGradient>
</defs>
</svg>
